<svg xmlns="http://www.w3.org/2000/svg" viewBox="0 0 454 62"><defs><style>.cls-1{fill:#fff;stroke:#1d1d1b;stroke-miterlimit:10;}.cls-2{font-size:12px;font-family:Helvetica;}.cls-2,.cls-4{fill:#1d1d1b;}.cls-3{letter-spacing:-0.11em;}</style></defs><g id="Layer_2" data-name="Layer 2"><g id="Layer_1-2" data-name="Layer 1"><rect class="cls-1" x="0.5" y="0.5" width="98" height="61" rx="30.35"/><text class="cls-2" transform="translate(36.73 26.28)">User<tspan x="-13.01" y="14.4">Research</tspan></text><rect class="cls-1" x="118.5" y="0.5" width="98" height="61" rx="30.35"/><text class="cls-2" transform="translate(136.88 27.53)">Personas &amp;<tspan x="4.34" y="14.4">Scenarios</tspan></text><rect class="cls-1" x="237.5" y="0.5" width="98" height="61" rx="30.35"/><text class="cls-2" transform="translate(262.05 27.53)">Design &amp;<tspan x="-6.01" y="14.4">Prototyping</tspan></text><rect class="cls-1" x="355.5" y="0.5" width="98" height="61" rx="30.35"/><text class="cls-2" transform="translate(382.22 27.53)">Usability<tspan class="cls-3" x="3.66" y="14.4">T</tspan><tspan x="9.66" y="14.4">esting</tspan></text><polygon class="cls-4" points="226.47 36.41 227.58 33 220 33 220 29 227.58 29 226.47 25.59 233.53 31.1 226.47 36.41"/><polygon class="cls-4" points="107.47 36.41 108.58 33 101 33 101 29 108.58 29 107.47 25.59 114.53 31.1 107.47 36.41"/><polygon class="cls-4" points="344.47 36.41 345.58 33 338 33 338 29 345.58 29 344.47 25.59 351.53 31.1 344.47 36.41"/></g></g></svg>