<svg width="183" height="22" viewBox="0 0 183 22" fill="none" xmlns="http://www.w3.org/2000/svg">
<path d="M10.3838 21L5.90378 13.216H3.46778V21H0.275781V1.54H6.99578C8.48912 1.54 9.74911 1.80133 10.7758 2.324C11.8211 2.84667 12.5958 3.54667 13.0998 4.424C13.6224 5.30133 13.8838 6.28133 13.8838 7.364C13.8838 8.63333 13.5104 9.79067 12.7638 10.836C12.0358 11.8627 10.9064 12.5627 9.37578 12.936L14.1918 21H10.3838ZM3.46778 10.668H6.99578C8.19045 10.668 9.08645 10.3693 9.68378 9.772C10.2998 9.17467 10.6078 8.372 10.6078 7.364C10.6078 6.356 10.3091 5.572 9.71178 5.012C9.11445 4.43333 8.20912 4.144 6.99578 4.144H3.46778V10.668ZM24.6592 21.252C23.2032 21.252 21.8872 20.9253 20.7112 20.272C19.5352 19.6 18.6112 18.6667 17.9392 17.472C17.2672 16.2587 16.9312 14.8587 16.9312 13.272C16.9312 11.704 17.2765 10.3133 17.9672 9.1C18.6579 7.88667 19.6005 6.95333 20.7952 6.3C21.9899 5.64667 23.3245 5.32 24.7992 5.32C26.2739 5.32 27.6085 5.64667 28.8032 6.3C29.9979 6.95333 30.9405 7.88667 31.6312 9.1C32.3219 10.3133 32.6672 11.704 32.6672 13.272C32.6672 14.84 32.3125 16.2307 31.6032 17.444C30.8939 18.6573 29.9232 19.6 28.6912 20.272C27.4779 20.9253 26.1339 21.252 24.6592 21.252ZM24.6592 18.48C25.4805 18.48 26.2459 18.284 26.9552 17.892C27.6832 17.5 28.2712 16.912 28.7192 16.128C29.1672 15.344 29.3912 14.392 29.3912 13.272C29.3912 12.152 29.1765 11.2093 28.7472 10.444C28.3179 9.66 27.7485 9.072 27.0392 8.68C26.3299 8.288 25.5645 8.092 24.7432 8.092C23.9219 8.092 23.1565 8.288 22.4472 8.68C21.7565 9.072 21.2059 9.66 20.7952 10.444C20.3845 11.2093 20.1792 12.152 20.1792 13.272C20.1792 14.9333 20.5992 16.2213 21.4392 17.136C22.2979 18.032 23.3712 18.48 24.6592 18.48ZM39.0147 7.868C39.556 7.12133 40.2933 6.51467 41.2267 6.048C42.1787 5.56267 43.2333 5.32 44.3907 5.32C45.7533 5.32 46.9853 5.64667 48.0867 6.3C49.188 6.95333 50.056 7.88667 50.6907 9.1C51.3253 10.2947 51.6427 11.6667 51.6427 13.216C51.6427 14.7653 51.3253 16.156 50.6907 17.388C50.056 18.6013 49.1787 19.5533 48.0587 20.244C46.9573 20.916 45.7347 21.252 44.3907 21.252C43.196 21.252 42.132 21.0187 41.1987 20.552C40.284 20.0853 39.556 19.488 39.0147 18.76V21H35.8227V0.28H39.0147V7.868ZM48.3947 13.216C48.3947 12.152 48.1707 11.2373 47.7227 10.472C47.2933 9.688 46.7147 9.1 45.9867 8.708C45.2773 8.29733 44.512 8.092 43.6907 8.092C42.888 8.092 42.1227 8.29733 41.3947 8.708C40.6853 9.11867 40.1067 9.716 39.6587 10.5C39.2293 11.284 39.0147 12.208 39.0147 13.272C39.0147 14.336 39.2293 15.2693 39.6587 16.072C40.1067 16.856 40.6853 17.4533 41.3947 17.864C42.1227 18.2747 42.888 18.48 43.6907 18.48C44.512 18.48 45.2773 18.2747 45.9867 17.864C46.7147 17.4347 47.2933 16.8187 47.7227 16.016C48.1707 15.2133 48.3947 14.28 48.3947 13.216ZM72.4887 11.004C73.534 11.1907 74.4207 11.7413 75.1487 12.656C75.8767 13.5707 76.2407 14.6067 76.2407 15.764C76.2407 16.7533 75.9793 17.6493 75.4567 18.452C74.9527 19.236 74.2153 19.8613 73.2447 20.328C72.274 20.776 71.1447 21 69.8567 21H62.0727V1.54H69.4927C70.818 1.54 71.9567 1.764 72.9087 2.212C73.8607 2.66 74.5793 3.26667 75.0647 4.032C75.55 4.77867 75.7927 5.61867 75.7927 6.552C75.7927 7.672 75.494 8.60533 74.8967 9.352C74.2993 10.0987 73.4967 10.6493 72.4887 11.004ZM65.2647 9.716H69.2127C70.258 9.716 71.07 9.48267 71.6487 9.016C72.246 8.53067 72.5447 7.84 72.5447 6.944C72.5447 6.06667 72.246 5.38533 71.6487 4.9C71.07 4.396 70.258 4.144 69.2127 4.144H65.2647V9.716ZM69.5767 18.396C70.6593 18.396 71.5087 18.1347 72.1247 17.612C72.7407 17.0893 73.0487 16.3613 73.0487 15.428C73.0487 14.476 72.722 13.72 72.0687 13.16C71.4153 12.6 70.5473 12.32 69.4647 12.32H65.2647V18.396H69.5767ZM86.4014 21.252C84.9454 21.252 83.6294 20.9253 82.4534 20.272C81.2774 19.6 80.3534 18.6667 79.6814 17.472C79.0094 16.2587 78.6734 14.8587 78.6734 13.272C78.6734 11.704 79.0187 10.3133 79.7094 9.1C80.4 7.88667 81.3427 6.95333 82.5374 6.3C83.732 5.64667 85.0667 5.32 86.5414 5.32C88.016 5.32 89.3507 5.64667 90.5454 6.3C91.74 6.95333 92.6827 7.88667 93.3734 9.1C94.064 10.3133 94.4094 11.704 94.4094 13.272C94.4094 14.84 94.0547 16.2307 93.3454 17.444C92.636 18.6573 91.6654 19.6 90.4334 20.272C89.22 20.9253 87.876 21.252 86.4014 21.252ZM86.4014 18.48C87.2227 18.48 87.988 18.284 88.6974 17.892C89.4254 17.5 90.0134 16.912 90.4614 16.128C90.9094 15.344 91.1334 14.392 91.1334 13.272C91.1334 12.152 90.9187 11.2093 90.4894 10.444C90.06 9.66 89.4907 9.072 88.7814 8.68C88.072 8.288 87.3067 8.092 86.4854 8.092C85.664 8.092 84.8987 8.288 84.1894 8.68C83.4987 9.072 82.948 9.66 82.5374 10.444C82.1267 11.2093 81.9214 12.152 81.9214 13.272C81.9214 14.9333 82.3414 16.2213 83.1814 17.136C84.04 18.032 85.1134 18.48 86.4014 18.48ZM118.285 5.572L113.497 21H110.137L107.029 9.604L103.921 21H100.561L95.7448 5.572H98.9928L102.213 17.976L105.489 5.572H108.821L111.957 17.92L115.149 5.572H118.285ZM139.346 5.32C140.56 5.32 141.642 5.572 142.594 6.076C143.565 6.58 144.321 7.32667 144.862 8.316C145.422 9.30533 145.702 10.5 145.702 11.9V21H142.538V12.376C142.538 10.9947 142.193 9.94 141.502 9.212C140.812 8.46533 139.869 8.092 138.674 8.092C137.48 8.092 136.528 8.46533 135.818 9.212C135.128 9.94 134.782 10.9947 134.782 12.376V21H131.618V12.376C131.618 10.9947 131.273 9.94 130.582 9.212C129.892 8.46533 128.949 8.092 127.754 8.092C126.56 8.092 125.608 8.46533 124.898 9.212C124.208 9.94 123.862 10.9947 123.862 12.376V21H120.67V5.572H123.862V7.336C124.385 6.70133 125.048 6.20667 125.85 5.852C126.653 5.49733 127.512 5.32 128.426 5.32C129.658 5.32 130.76 5.58133 131.73 6.104C132.701 6.62667 133.448 7.38267 133.97 8.372C134.437 7.43867 135.165 6.70133 136.154 6.16C137.144 5.6 138.208 5.32 139.346 5.32ZM148.7 13.216C148.7 11.6667 149.017 10.2947 149.652 9.1C150.305 7.90533 151.183 6.98133 152.284 6.328C153.404 5.656 154.636 5.32 155.98 5.32C157.193 5.32 158.248 5.56267 159.144 6.048C160.059 6.51467 160.787 7.10267 161.328 7.812V5.572H164.548V21H161.328V18.704C160.787 19.432 160.049 20.0387 159.116 20.524C158.183 21.0093 157.119 21.252 155.924 21.252C154.599 21.252 153.385 20.916 152.284 20.244C151.183 19.5533 150.305 18.6013 149.652 17.388C149.017 16.156 148.7 14.7653 148.7 13.216ZM161.328 13.272C161.328 12.208 161.104 11.284 160.656 10.5C160.227 9.716 159.657 9.11867 158.948 8.708C158.239 8.29733 157.473 8.092 156.652 8.092C155.831 8.092 155.065 8.29733 154.356 8.708C153.647 9.1 153.068 9.688 152.62 10.472C152.191 11.2373 151.976 12.152 151.976 13.216C151.976 14.28 152.191 15.2133 152.62 16.016C153.068 16.8187 153.647 17.4347 154.356 17.864C155.084 18.2747 155.849 18.48 156.652 18.48C157.473 18.48 158.239 18.2747 158.948 17.864C159.657 17.4533 160.227 16.856 160.656 16.072C161.104 15.2693 161.328 14.336 161.328 13.272ZM176.525 5.32C177.738 5.32 178.821 5.572 179.773 6.076C180.743 6.58 181.499 7.32667 182.041 8.316C182.582 9.30533 182.853 10.5 182.853 11.9V21H179.689V12.376C179.689 10.9947 179.343 9.94 178.653 9.212C177.962 8.46533 177.019 8.092 175.825 8.092C174.63 8.092 173.678 8.46533 172.969 9.212C172.278 9.94 171.933 10.9947 171.933 12.376V21H168.741V5.572H171.933V7.336C172.455 6.70133 173.118 6.20667 173.921 5.852C174.742 5.49733 175.61 5.32 176.525 5.32Z" fill="black"/>
</svg>
