<svg xmlns="http://www.w3.org/2000/svg" viewBox="0 0 336.47 140"><defs><style>.cls-1{fill:#fff;stroke:#1d1d1b;stroke-miterlimit:10;}.cls-2{font-size:12px;font-family:Helvetica;}.cls-2,.cls-4{fill:#1d1d1b;}.cls-3{letter-spacing:-0.11em;}</style></defs><g id="Layer_2" data-name="Layer 2"><g id="Layer_1-2" data-name="Layer 1"><rect class="cls-1" x="0.5" y="39.5" width="98" height="61" rx="30.35"/><text class="cls-2" transform="translate(36.73 65.28)">User<tspan x="-13.01" y="14.4">Research</tspan></text><rect class="cls-1" x="118.5" y="39.5" width="98" height="61" rx="30.35"/><text class="cls-2" transform="translate(136.88 66.53)">Personas &amp;<tspan x="4.34" y="14.4">Scenarios</tspan></text><rect class="cls-1" x="237.97" y="0.5" width="98" height="61" rx="30.35"/><text class="cls-2" transform="translate(262.53 27.53)">Design &amp;<tspan x="-6.01" y="14.4">Prototyping</tspan></text><rect class="cls-1" x="237.87" y="78.5" width="98" height="61" rx="30.35"/><text class="cls-2" transform="translate(264.6 105.53)">Usability<tspan class="cls-3" x="3.66" y="14.4">T</tspan><tspan x="9.66" y="14.4">esting</tspan></text><polygon class="cls-4" points="229.69 52.54 228.95 49.03 222.38 52.81 220.38 49.35 226.95 45.56 224.28 43.16 233.15 44.41 229.69 52.54"/><polygon class="cls-4" points="107.47 75.41 108.58 72 101 72 101 68 108.58 68 107.47 64.59 114.53 70.1 107.47 75.41"/><polygon class="cls-4" points="264.17 69.71 267.59 70.82 267.59 63.24 271.59 63.24 271.59 70.82 275 69.71 269.49 76.76 264.17 69.71"/><polygon class="cls-4" points="310.1 70.29 306.68 69.18 306.68 76.76 302.68 76.76 302.68 69.18 299.27 70.29 304.79 63.24 310.1 70.29"/></g></g></svg>