<svg xmlns="http://www.w3.org/2000/svg" viewBox="0 0 450.5 62"><defs><style>.cls-1{fill:#fff;stroke:#1d1d1b;stroke-miterlimit:10;}.cls-2{font-size:12px;font-family:Helvetica;}.cls-2,.cls-3{fill:#1d1d1b;}</style></defs><g id="Layer_2" data-name="Layer 2"><g id="Layer_1-2" data-name="Layer 1"><rect class="cls-1" x="0.5" y="0.5" width="98" height="61" rx="30.35"/><text class="cls-2" transform="translate(24.15 26.07)">Literature<tspan x="5.67" y="14.4">Review</tspan></text><polygon class="cls-3" points="107.53 36.41 108.63 33 101.05 33 101.05 29 108.63 29 107.53 25.59 114.58 31.1 107.53 36.41"/><rect class="cls-1" x="117.5" y="0.5" width="98" height="61" rx="30.35"/><text class="cls-2" transform="translate(136.15 33.27)">Experiment</text><rect class="cls-1" x="234.5" y="0.5" width="98" height="61" rx="30.35"/><text class="cls-2" transform="translate(263.49 33.27)">Results</text><polygon class="cls-3" points="225.53 36.41 226.63 33 219.05 33 219.05 29 226.63 29 225.53 25.59 232.58 31.1 225.53 36.41"/><rect class="cls-1" x="352" y="0.5" width="98" height="61" rx="30.35"/><text class="cls-2" transform="translate(371.99 33.27)">Discussion</text><polygon class="cls-3" points="341.53 36.39 342.63 32.98 335.05 32.98 335.05 28.98 342.63 28.98 341.53 25.56 348.58 31.08 341.53 36.39"/></g></g></svg>